<?xml version="1.0" encoding="UTF-8"?>
<svg xmlns="http://www.w3.org/2000/svg" viewBox="0 0 526.36 622.97">
  <defs>
    <style>
      .cls-1 {
        stroke: #000;
        stroke-miterlimit: 10;
        stroke-width: 3px;
      }

      .cls-1, .cls-2 {
        fill: #9ae6e8;
      }

      .cls-3 {
        fill: #6fefca;
      }
    </style>
  </defs>
  <g id="Calque_1">
    <g>
      <path class="cls-2" d="M270.11,520.97c-2.24,0-4.46-.06-6.6-.17-15.3-.82-38.27-5-58.53-10.66-22.75-6.36-83.17-23.24-130.66-71.78-20.41-20.86-36.05-49.5-43.56-64.72-1.11-2.24-2.17-4.46-3.15-6.58-.48-1.04-.9-1.96-1.25-2.74-.83-1.85-1.27-2.9-1.31-2.98l-.07-.16c-.02-.05-2.56-5.62-5.75-14.92-5.51-16.04-14.6-48.14-13.67-82.97.8-29.58,7.7-60.95,19.97-90.7,12.49-30.29,30.62-59.04,52.43-83.14,23.41-25.87,50.52-46.24,80.6-60.55,32.63-15.53,67.84-23.41,104.64-23.41,68.82,0,133.52,26.8,182.18,75.46,48.66,48.66,75.46,113.36,75.46,182.18,0,38.26-8.81,74.83-26.18,108.68-15.45,30.11-37.21,57.39-64.69,81.08-47.95,41.34-110.71,68.06-159.88,68.06Z"/>
      <path d="M263.21,11c34.04,0,67.06,6.67,98.14,19.81,30.02,12.7,56.99,30.88,80.15,54.04,23.16,23.16,41.34,50.13,54.04,80.15,13.15,31.08,19.81,64.1,19.81,98.14,0,37.38-8.6,73.1-25.57,106.17-15.12,29.48-36.45,56.2-63.39,79.42-47.01,40.53-108.36,66.73-156.29,66.73-2.14,0-4.26-.06-6.31-.16-14.93-.8-37.44-4.91-57.34-10.47-22.36-6.25-81.74-22.84-128.21-70.32-19.87-20.31-35.19-48.38-42.56-63.31-1.08-2.2-2.12-4.37-3.09-6.46-.47-1.02-.88-1.92-1.23-2.68-.72-1.61-1.14-2.59-1.25-2.86v-.03s-.02-.02-.02-.02l-.06-.13-.06-.12c-.02-.05-2.46-5.43-5.55-14.42-5.39-15.69-14.28-47.08-13.37-81.04.78-28.92,7.54-59.61,19.56-88.75,12.25-29.71,30.04-57.91,51.43-81.54,22.92-25.33,49.46-45.28,78.88-59.28,31.89-15.18,66.3-22.87,102.28-22.87M263.21,0C105.94,0,3.36,141,.07,263.14c-.94,34.91,7.76,66.84,13.96,84.9,3.34,9.72,5.95,15.42,5.95,15.42.02.04.48,1.15,1.36,3.1.36.8.79,1.74,1.28,2.8.87,1.87,1.94,4.13,3.21,6.7,8.02,16.25,23.82,44.94,44.56,66.13,48.53,49.6,109.74,66.7,133.11,73.23,22.19,6.2,45.07,10.07,59.71,10.86,2.26.12,4.55.18,6.89.18,94.25,0,256.25-97.28,256.25-263.32C526.36,117.81,408.54,0,263.21,0h0Z"/>
    </g>
    <g>
      <path class="cls-2" d="M34.07,374.55s24.59,114.48,32.97,124.39c8.38,9.9,19.43,16,23.62,15.62,4.19-.38,19.05-8,21.33-12.57s3.81-31.24,3.81-31.24"/>
      <path d="M34.6,374.43c9.23,34.48,17.39,69.36,27.35,103.59,1.95,6.23,3.66,12.52,6.6,18.31,4.15,5.78,14.73,14.79,21.76,15.85,2.71-.3,5.83-1.88,8.47-3.05,3.72-1.81,7.8-3.95,10.74-6.75,1.08-.93,1.48-2.28,1.82-3.64,1.97-8.12,3.19-19.61,4.47-27.99.09,9.02-.04,17.95-1.14,26.94-.32,1.78-.48,3.77-1.36,5.4-1.57,2.7-4.31,4.61-6.66,6.29-3.85,2.59-7.78,4.86-12.24,6.58-1.24.45-2.55.93-3.93.98-1.69.04-2.92-.32-4.14-.7-6.83-2.35-12.5-6.74-17.64-11.61-1.72-1.74-3.55-3.48-4.85-5.61-.45-.95-1.24-2.34-1.58-3.31-8.39-22.14-13.1-45.38-18.43-68.36-3.78-17.5-7.32-35.04-10.3-52.7,0,0,1.05-.23,1.05-.23h0Z"/>
    </g>
    <path class="cls-1" d="M71.62,536.27s2.67,20.57,9.52,21.71c6.86,1.14,20.19,3.43,20.57,0s3.81-16,3.43-20.57-18.29-6.86-22.86-8.38-10.67,7.24-10.67,7.24Z"/>
    <g>
      <path class="cls-2" d="M186.85,503.98s11.22,77.17,12.57,82.29c3.81,14.48,22.48,34.67,33.52,34.29,11.05-.38,29.9-4.57,41.14-9.52,4.95-2.18,16-14.86,16-26.29s-1.67-15,2.67-35.43c4.44-20.95,12.19-29.71,16.38-31.24"/>
      <path d="M189.33,503.62c-1.84.83-1.2,1.19-1.11,2.37.16,1.24.79,5.16.97,6.48,2.95,19.7,6.54,40.79,9.96,60.35.53,2.86,1.75,10,2.39,12.68,1.92,6.65,5.89,12.51,10.28,17.93,3.6,4.32,7.7,8.28,12.23,11.33,3.4,2.27,6.85,3.79,10.78,3.28,13.08-1.09,26.34-3.89,38.56-8.71,2.07-1.01,3.77-2.63,5.42-4.27,3.83-4.03,7.1-8.84,8.9-14.11.9-2.65,1.25-5.41,1.17-8.21-.05-5.81-.42-11.76.31-17.57,1.58-11.64,3.86-23.22,8.61-34.01,2.6-5.28,5.49-11.14,11.04-13.88,0,0,.57,1.58.57,1.58-5.11,2.37-7.98,7.99-10.39,12.86-4.72,10.52-6.8,22.22-7.98,33.63-.56,5.8,0,11.52.2,17.35.16,3.04-.12,6.11-.98,9.04-2.33,7.63-8.35,16.94-15.38,20.92-12.64,5.48-26.03,8.82-39.72,10.18-14.62,1.97-31.74-19.5-36.53-31.78-2.09-4.92-2.52-12.39-3.41-17.62-1.6-11.56-3.1-23.11-4.6-34.67-1.17-8.9-3.23-23.68-4.5-32.47,0,0-.15-1.08-.15-1.08-.02-.37-.29-.69-1.59-.87,0,0,4.95-.72,4.95-.72h0Z"/>
    </g>
    <g>
      <path class="cls-2" d="M491.58,386.52s-20.2,57.73-28.52,75.47c-8.32,17.74-13.13,23.2-13.13,23.2-8.67,3.65-31.62,15.66-34.03,10.77s-12.88-17.08-12.88-17.08"/>
      <path d="M492.18,386.72c-5.66,16.99-11.42,33.94-17.49,50.81-4.57,12.63-9.26,25.43-15.61,37.39-2.2,4.11-4.38,8.19-7.28,11.91,0,0-.29.34-.29.34,0,0-.61.31-.61.31-8.78,4.37-17.27,9.17-26.93,12.07-3.53.99-8.98,1.97-11.09-2.18-1.99-3.78-9.24-13.23-11.75-16.88,0,0,3.79-3.26,3.79-3.26,5.04,5.1,10,10.44,13.68,16.68,0,0,.26.48.26.48,0,0,.03.06.03.06,0-.05-.04-.11-.06-.15-.13-.29-.62-.6-.68-.6,3.54.09,7.17-1.55,10.64-2.72,6.83-2.52,13.21-5.54,20.16-8.11,0,0-.9.65-.9.65.23-.26.6-.73.9-1.13,4.85-6.66,8.65-14.02,12.32-21.41,11.1-24.3,20.23-49.67,29.71-74.69,0,0,1.19.42,1.19.42h0Z"/>
    </g>
  </g>
  <g id="Calque_2">
    <g>
      <path class="cls-3" d="M434.6,442.06c-10.5-26.91-15.92-40.39-24.38-41.34-13.02-1.46-22.98,21.78-40.92,20.67-10.47-.65-12.22-8.87-23.51-10.06-15.51-1.63-31.74,11.87-37.44,17.88-26.53,28.01,9.79,68.83,14.8,74.3l2.52,4.06,67.56-28.7,41.36-36.82Z"/>
      <path d="M432.65,441.59c-1.99-3.3-3.97-9.6-5.53-13.29-3.15-7.11-8.81-25.15-17.15-26.23-8.35-.78-16.17,9.17-22.84,13.65-6.28,4.78-14.57,8.19-22.44,5.5-5.07-1.63-8.63-5.89-13.45-7.79-7.11-2.88-15.25-1.12-22.03,1.9-4.64,2.12-9,4.88-13.03,8.05-5.05,3.94-9.66,8.45-12.62,14.09-2.79,5.27-3.91,11.37-3.61,17.32,1.36,18.25,12.83,34.57,24.83,47.72,0,0,2.6,4.01,2.6,4.01,0,0-2.48-.79-2.48-.79-.31.21,69.69-29.79,67.01-28.35,13.5-12.02,27.04-23.89,40.75-35.79h0ZM436.54,442.52c-13.95,12.72-28.06,25.47-42.22,38.06-.14.22-67.65,28.63-67.86,28.83,0,0-1.58.67-1.58.67,0,0-.9-1.46-.91-1.46,0,0-2.43-4.11-2.43-4.11l.21.28c-11.86-13.85-23.68-32.15-24.11-50.91-.26-13.7,6.86-23.89,17.46-31.88,7.75-5.92,16.9-11.03,26.85-11.52,3.33-.16,6.73.27,9.83,1.59,2.49,1.04,4.69,2.59,6.77,4.12,6.07,5.1,14.13,5.78,21.12,2.23,6.99-3.49,12.04-9.39,18.21-14.24,3.14-2.46,7.01-4.85,11.26-4.88,7.58.03,11.72,7.58,14.88,13.31,2.48,4.67,4.58,9.45,6.58,14.26,1.84,4.65,4.66,10.74,5.92,15.64h0Z"/>
    </g>
    <g>
      <path class="cls-3" d="M22.95,352.27s9.14,3.43,13.14,4,23.43-5.71,28.57-17.14c5.14-11.43,10.29-21.14,37.71-19.43s29.71,45.71,46.86,81.71,45.14,22.29,45.14,22.29c0,0,54.29-55.43,33.71-81.71s-10.86-50.86,13.71-66.29c24.57-15.43,37.71-94.86,55.43-121.71s-29.14-48-32.57-49.71-25.14-7.43-25.14-7.43l-10.29,29.71s-45.71,41.71-55.43,53.71c-9.71,12-29.71-19.43-29.71-19.43,0,0-4.57-22.29-9.71-53.71-5.14-31.43-80,16.57-80,16.57,0,0-78.29,110.86-31.43,228.57"/>
      <path d="M23.65,350.4c4.08,1.67,8.26,3.42,12.56,4.4.3.08,1.21.03,1.55,0,9.61-1.47,21.95-7.18,26.37-16.36,2.93-6.57,6.99-13.34,13.91-16.26,7.24-3.31,15.48-3.55,23.27-3.18,2.61.11,5.34.43,7.86,1.4,12.9,4.9,18.3,19.08,23.04,30.89,5.45,14.57,9.83,29.68,16.24,43.79,7.42,17.37,20.62,32.89,41.29,26.58.97-.33,2.14-.76,3.02-1.23,0,0-1,.72-1,.72,5.68-5.82,11.16-12.17,16.18-18.62,9.63-12.78,19.39-26.79,21.72-42.87.67-5.69-.21-11.35-3.66-15.87,0,0-1.92-2.61-1.92-2.61-5.7-8.08-9.77-17.7-9.66-27.76.02-13.47,8.02-25.65,18.27-33.82,3.2-2.74,6.88-4.79,10.24-7.29,6.12-5.13,10.26-12.56,13.89-19.69,3.66-7.41,6.76-15.15,9.66-22.97,5.81-15.69,10.75-31.7,16.45-47.46,3.26-8.85,6.67-17.82,11.41-26.1,0,0,1.7-2.73,1.7-2.73.52-.87,1.04-1.71,1.53-2.58,2.26-4.36,3.08-9.51,1.62-14.29-2.24-7.82-8.42-13.98-14.68-18.97-6.5-5.04-13.76-9.32-21.24-12.73-7.79-2.74-16.01-4.85-24.01-7.05,0,0,1.12-.6,1.12-.6,0,0-9.27,30.05-9.27,30.05,0,0,0,.01,0,.01,0,0-.16.48-.16.48-14.54,13.26-29.02,26.65-43.08,40.41-3.44,3.43-6.92,6.86-10.17,10.42-1.9,1.94-3.14,4.25-5.78,5.48-2.74,1.34-6.01.73-8.56-.53-4.72-2.36-8.27-6.01-11.7-9.81-3.36-3.85-6.38-7.88-9.16-12.17-3.58-17.44-6.96-36.63-9.95-54.25-4.71-25.44-65.11,10.56-77.1,18.14C25,172.84,4.32,238.08,11.36,297.73c.51,3.54,1,7.5,1.54,11.02,1.25,7.02,2.94,14.86,4.82,21.71.75,2.37,2.49,8.32,3.27,10.63.83,2.35,2.97,8.06,3.82,10.45,0,0-3.72,1.48-3.72,1.48,0,0-2.6-7.1-2.6-7.1-1.56-3.97-3.36-10.25-4.63-14.39-1.91-6.98-3.64-14.96-4.91-22.13C-1.52,244.87,17.61,176.87,52.74,122.54c0,0,.22-.31.22-.31,0,0,.34-.22.34-.22,10.46-6.5,21.18-12.38,32.37-17.51,11.54-5.02,33.9-14.94,45.37-6.78,2.83,2.08,4.53,5.52,5.07,8.89,0,0,3.01,18.02,3.01,18.02,2.07,11.98,4.24,23.97,6.61,35.88l-.23-.56c2.62,3.98,5.57,7.86,8.73,11.44,3.51,3.74,11.24,12.31,16.76,9.08,0,0,.55-.42.55-.42.19-.12.34-.35.51-.51.17-.19.31-.31.54-.58,10.51-12.05,22.34-22.79,33.83-33.85,7.11-6.72,14.26-13.39,21.46-20.01,0,0-.56.87-.54.81,0,0,11.29-29.35,11.29-29.35,0,0,.32-.83.32-.83,0,0,.8.23.8.23,8.16,2.2,16.23,4.19,24.27,6.96,3.96,1.69,7.6,3.69,11.31,5.82,10.66,6.47,22.26,14.65,26.23,27.1,1.46,4.76,1.07,10.11-.97,14.65-.9,2.26-2.67,4.85-3.91,6.97,0,0-1.47,2.71-1.47,2.71-7.39,14.89-12.09,31.08-17.34,46.86-6.7,19.92-12.6,40.48-23.8,58.5-2.36,3.6-5.07,7.07-8.51,9.99-3.3,2.56-6.97,4.66-10.1,7.43-12.63,10.29-19.9,26.01-14.01,41.98,1.61,4.63,4.13,9.09,7.04,13.1,1.99,2.55,4.25,5.47,5.33,8.58,8.21,22.44-14.86,53.34-28.39,70.03-2.85,3.43-5.75,6.76-8.88,10.07-1.6.8-3.22,1.26-4.91,1.7-23.99,5.58-38.98-11.18-46.68-31.83-5.96-14.59-9.76-29.71-14.89-44.51-4.24-11.51-9.2-25.35-21.42-30.29-2.35-.95-4.85-1.31-7.42-1.43-9.92-.48-21.46-.19-28.82,7.33-3.68,3.69-5.51,8.6-7.8,13.22-2.65,4.74-7.04,8.14-11.6,10.88-5.01,2.79-10.2,5.25-16,5.99-2.48.03-4.85-.76-7.19-1.34-2.55-.71-5.06-1.44-7.59-2.26,0,0,1.4-3.75,1.4-3.75h0Z"/>
    </g>
    <g>
      <path class="cls-3" d="M370.18,31.41s-19.46,12.22-10.23,36.74,26.21,40.21,27.2,41.7,25,15.45,19.67,42.43-26.58,26.6-19.4,46.12,46,39.12,69.82,30.82c23.82-8.3,44.73-19.55,46.1-21.11l3.61-21.36S464.7,51.88,370.18,31.41Z"/>
      <path d="M370.52,33.38c.12,0,.25-.03.36-.08.11-.04.25-.15.15-.08-2.65,1.61-4.92,3.78-6.88,6.18-6.41,7.79-7.15,18.75-3.78,28.05,2.77,7.97,6.73,15.54,11.39,22.57,4.52,6.93,9.96,13.21,15.63,19.22.13.16.22.28.36.4,2.61,2.04,5.44,4.18,7.83,6.56,13.71,13.04,16.75,30.84,8.93,47.95-2.79,6.34-7.68,11.73-12.04,16.86-2.08,2.54-3.77,5.16-4.2,7.98-1.16,12.81,11.46,22.83,21.48,28.9,11.23,6.45,24.13,10.93,37.18,10.43,6.65-.2,12.6-2.83,18.73-5.06,12.07-4.73,24.16-9.75,35.49-16.08,0,0,.48-.3.48-.3.07-.06.1-.08.18-.1.02-.01-.47.99-.47.98,0,0,3.61-21.36,3.61-21.36l.06.93c-5.63-16.85-12.93-33.34-21.14-49.13-24.21-46.04-60.6-92.09-113.37-104.83h0ZM369.83,29.44c70.6,14.68,117,93.29,139.02,156.71,0,0,.15.44.15.44,0,0-.08.49-.08.49,0,0-3.61,21.36-3.61,21.36,0,0-.11.64-.11.64-.37.35-.79.77-1.18,1.07-11.37,7.42-23.89,12.88-36.41,18.05-3.19,1.27-6.38,2.49-9.63,3.65-10.3,3.49-21.66,2.21-31.77-.83-17.35-5.12-45.08-21.73-42.11-42.82.73-3.75,3.01-6.97,5.43-9.7,4.58-5.04,9.21-9.63,12.2-15.71,9.01-18.06,4.58-36.21-10.81-49.03-1.55-1.43-3.44-2.54-4.83-4.25-11.36-12.11-20.88-26.07-26.88-41.64-3.88-9.87-3.57-21.25,2.57-30.19,1.96-2.89,4.27-5.56,7.02-7.73-.01,0,.21-.16.41-.26.2-.11.42-.19.63-.25h0Z"/>
    </g>
  </g>
</svg>